<?xml version="1.0" encoding="UTF-8" standalone="no"?>
<svg
   viewBox="0 0 128 128"
   width="64px"
   height="64px"
   version="1.1"
   id="svg67"
   sodipodi:docname="icon-paypal.svg"
   inkscape:version="1.1.1 (c3084ef, 2021-09-22)"
   xmlns:inkscape="http://www.inkscape.org/namespaces/inkscape"
   xmlns:sodipodi="http://sodipodi.sourceforge.net/DTD/sodipodi-0.dtd"
   xmlns="http://www.w3.org/2000/svg"
   xmlns:svg="http://www.w3.org/2000/svg">
  <defs
     id="defs71" />
  <sodipodi:namedview
     id="namedview69"
     pagecolor="#505050"
     bordercolor="#ffffff"
     borderopacity="1"
     inkscape:pageshadow="0"
     inkscape:pageopacity="0"
     inkscape:pagecheckerboard="1"
     showgrid="false"
     inkscape:zoom="10.71875"
     inkscape:cx="30.740525"
     inkscape:cy="30.880466"
     inkscape:window-width="1680"
     inkscape:window-height="912"
     inkscape:window-x="0"
     inkscape:window-y="25"
     inkscape:window-maximized="0"
     inkscape:current-layer="svg67" />
  <path
     fill="#ffffff"
     d="M 109,104 H 19 C 13.5,104 9,99.5 9,94 V 34 C 9,28.5 13.5,24 19,24 h 90 c 5.5,0 10,4.5 10,10 v 60 c 0,5.5 -4.5,10 -10,10 z"
     id="path57" />
  <path
     fill="#444b54"
     d="M 109,107 H 19 C 11.8,107 6,101.2 6,94 V 34 C 6,26.8 11.8,21 19,21 h 90 c 7.2,0 13,5.8 13,13 v 60 c 0,7.2 -5.8,13 -13,13 z M 19,27 c -3.9,0 -7,3.1 -7,7 v 60 c 0,3.9 3.1,7 7,7 h 90 c 3.9,0 7,-3.1 7,-7 V 34 c 0,-3.9 -3.1,-7 -7,-7 z"
     id="path59"
     style="fill:#1565c0;fill-opacity:1" />
  <g
     id="g162"
     transform="matrix(1.7615521,0,0,1.7615521,23.482841,21.72275)">
    <path
       fill="#1565c0"
       d="m 18.7,13.767 0.005,0.002 C 18.809,13.326 19.187,13 19.66,13 h 13.472 c 0.017,0 0.034,-0.007 0.051,-0.006 C 32.896,8.215 28.887,6 25.35,6 H 11.878 C 11.404,6 11.026,6.335 10.923,6.777 L 10.918,6.775 5.029,33.813 5.042,33.814 c -0.014,0.064 -0.039,0.125 -0.039,0.194 0,0.553 0.447,0.991 1,0.991 h 8.071 z"
       id="path147" />
    <path
       fill="#039be5"
       d="m 33.183,12.994 c 0.053,0.876 -0.005,1.829 -0.229,2.882 -1.281,5.995 -5.912,9.115 -11.635,9.115 0,0 -3.47,0 -4.313,0 -0.521,0 -0.767,0.306 -0.88,0.54 l -1.74,8.049 -0.305,1.429 h -0.006 l -1.263,5.796 0.013,10e-4 c -0.014,0.064 -0.039,0.125 -0.039,0.194 0,0.553 0.447,1 1,1 h 7.333 l 0.013,-0.01 c 0.472,-0.007 0.847,-0.344 0.945,-0.788 l 0.018,-0.015 1.812,-8.416 c 0,0 0.126,-0.803 0.97,-0.803 0.844,0 4.178,0 4.178,0 5.723,0 10.401,-3.106 11.683,-9.102 1.442,-6.76 -3.38,-9.847 -7.555,-9.872 z"
       id="path149" />
    <path
       fill="#283593"
       d="m 19.66,13 c -0.474,0 -0.852,0.326 -0.955,0.769 L 18.7,13.767 16.125,25.532 c 0.113,-0.234 0.359,-0.54 0.88,-0.54 0.844,0 4.235,0 4.235,0 5.723,0 10.432,-3.12 11.713,-9.115 0.225,-1.053 0.282,-2.006 0.229,-2.882 C 33.166,12.993 33.148,13 33.132,13 Z"
       id="path151" />
  </g>
</svg>
