<?xml version="1.0" encoding="UTF-8" standalone="no"?>
<svg
   viewBox="0 0 128 128"
   width="64px"
   height="64px"
   version="1.1"
   id="svg67"
   sodipodi:docname="icons8-mastercard.svg"
   inkscape:version="1.1.1 (c3084ef, 2021-09-22)"
   xmlns:inkscape="http://www.inkscape.org/namespaces/inkscape"
   xmlns:sodipodi="http://sodipodi.sourceforge.net/DTD/sodipodi-0.dtd"
   xmlns="http://www.w3.org/2000/svg"
   xmlns:svg="http://www.w3.org/2000/svg">
  <defs
     id="defs71" />
  <sodipodi:namedview
     id="namedview69"
     pagecolor="#505050"
     bordercolor="#ffffff"
     borderopacity="1"
     inkscape:pageshadow="0"
     inkscape:pageopacity="0"
     inkscape:pagecheckerboard="1"
     showgrid="false"
     inkscape:zoom="10.71875"
     inkscape:cx="12.921283"
     inkscape:cy="32"
     inkscape:window-width="1680"
     inkscape:window-height="912"
     inkscape:window-x="0"
     inkscape:window-y="25"
     inkscape:window-maximized="0"
     inkscape:current-layer="svg67" />
  <g
     id="g1095"
     inkscape:export-filename="/Users/igorosabel/Downloads/icon-master-card.png"
     inkscape:export-xdpi="107.16279"
     inkscape:export-ydpi="107.16279">
    <path
       fill="#fff"
       d="M109,104H19c-5.5,0-10-4.5-10-10V34c0-5.5,4.5-10,10-10h90c5.5,0,10,4.5,10,10v60C119,99.5,114.5,104,109,104z"
       id="path57" />
    <path
       fill="#444b54"
       d="M109,107H19c-7.2,0-13-5.8-13-13V34c0-7.2,5.8-13,13-13h90c7.2,0,13,5.8,13,13v60C122,101.2,116.2,107,109,107z M19,27c-3.9,0-7,3.1-7,7v60c0,3.9,3.1,7,7,7h90c3.9,0,7-3.1,7-7V34c0-3.9-3.1-7-7-7H19z"
       id="path59"
       style="fill:#1565c0;fill-opacity:1" />
    <path
       fill="#ff697d"
       d="M79 44A20 20 0 1 0 79 84A20 20 0 1 0 79 44Z"
       id="path63" />
    <path
       fill="#fcf09d"
       d="M49 44A20 20 0 1 0 49 84A20 20 0 1 0 49 44Z"
       id="path65" />
  </g>
</svg>
