<?xml version="1.0" encoding="UTF-8" standalone="no"?>
<svg
   viewBox="0 0 48 48"
   width="48px"
   height="48px"
   version="1.1"
   id="svg1131"
   sodipodi:docname="icons8-visa.svg"
   inkscape:version="1.1.1 (c3084ef, 2021-09-22)"
   xmlns:inkscape="http://www.inkscape.org/namespaces/inkscape"
   xmlns:sodipodi="http://sodipodi.sourceforge.net/DTD/sodipodi-0.dtd"
   xmlns="http://www.w3.org/2000/svg"
   xmlns:svg="http://www.w3.org/2000/svg">
  <defs
     id="defs1135" />
  <sodipodi:namedview
     id="namedview1133"
     pagecolor="#505050"
     bordercolor="#ffffff"
     borderopacity="1"
     inkscape:pageshadow="0"
     inkscape:pageopacity="0"
     inkscape:pagecheckerboard="1"
     showgrid="false"
     inkscape:zoom="14.375"
     inkscape:cx="9.773913"
     inkscape:cy="24"
     inkscape:window-width="1680"
     inkscape:window-height="912"
     inkscape:window-x="0"
     inkscape:window-y="25"
     inkscape:window-maximized="1"
     inkscape:current-layer="svg1131" />
  <g
     id="g1148"
     inkscape:export-filename="/Users/igorosabel/Downloads/icon-visa.png"
     inkscape:export-xdpi="153.60001"
     inkscape:export-ydpi="153.60001">
    <path
       fill="#1565C0"
       d="M45,35c0,2.209-1.791,4-4,4H7c-2.209,0-4-1.791-4-4V13c0-2.209,1.791-4,4-4h34c2.209,0,4,1.791,4,4V35z"
       id="path1125" />
    <path
       fill="#FFF"
       d="M15.186 19l-2.626 7.832c0 0-.667-3.313-.733-3.729-1.495-3.411-3.701-3.221-3.701-3.221L10.726 30v-.002h3.161L18.258 19H15.186zM17.689 30L20.56 30 22.296 19 19.389 19zM38.008 19h-3.021l-4.71 11h2.852l.588-1.571h3.596L37.619 30h2.613L38.008 19zM34.513 26.328l1.563-4.157.818 4.157H34.513zM26.369 22.206c0-.606.498-1.057 1.926-1.057.928 0 1.991.674 1.991.674l.466-2.309c0 0-1.358-.515-2.691-.515-3.019 0-4.576 1.444-4.576 3.272 0 3.306 3.979 2.853 3.979 4.551 0 .291-.231.964-1.888.964-1.662 0-2.759-.609-2.759-.609l-.495 2.216c0 0 1.063.606 3.117.606 2.059 0 4.915-1.54 4.915-3.752C30.354 23.586 26.369 23.394 26.369 22.206z"
       id="path1127" />
    <path
       fill="#FFC107"
       d="M12.212,24.945l-0.966-4.748c0,0-0.437-1.029-1.573-1.029c-1.136,0-4.44,0-4.44,0S10.894,20.84,12.212,24.945z"
       id="path1129" />
  </g>
</svg>
