<?xml version="1.0" encoding="UTF-8" standalone="no"?>
<svg
   viewBox="0 0 128 128"
   width="64px"
   height="64px"
   version="1.1"
   id="svg67"
   sodipodi:docname="icon-bizum.svg"
   inkscape:version="1.1.1 (c3084ef, 2021-09-22)"
   xmlns:inkscape="http://www.inkscape.org/namespaces/inkscape"
   xmlns:sodipodi="http://sodipodi.sourceforge.net/DTD/sodipodi-0.dtd"
   xmlns="http://www.w3.org/2000/svg"
   xmlns:svg="http://www.w3.org/2000/svg">
  <defs
     id="defs71">
    <clipPath
       clipPathUnits="userSpaceOnUse"
       id="clipPath454">
      <path
         fill-rule="evenodd"
         clip-rule="evenodd"
         d="m 63.876252,59.125804 c -0.862754,0 -1.55958,0.696906 -1.55958,1.526556 v 11.516128 c 0,0.862832 0.696826,1.55982 1.55958,1.55982 0.862754,0 1.559574,-0.696988 1.559574,-1.55982 V 60.65236 c 0,-0.82965 -0.69682,-1.526556 -1.559574,-1.526556 z m -8.6e-5,-5.741352 c -0.962226,0 -1.758608,0.796498 -1.758608,1.75894 0,0.962436 0.796382,1.792136 1.758608,1.792136 0.962314,0 1.758696,-0.796514 1.758696,-1.792136 0,-0.962442 -0.796382,-1.75894 -1.758696,-1.75894 z m 15.197686,7.267992 c 0,-0.962478 -0.763188,-1.327522 -1.460008,-1.327522 H 69.88225 c -0.763198,0 -1.360458,0.597346 -1.360458,1.327522 0,0.763278 0.597262,1.36071 1.360458,1.36071 h 5.076956 l -6.570158,9.15975 c -0.19912,0.265494 -0.298594,0.63054 -0.298594,0.929212 0,0.962476 0.763196,1.49345 1.426836,1.49345 h 8.196106 c 0.763188,0 1.360456,-0.597346 1.360456,-1.360706 0,-0.763276 -0.597268,-1.360628 -1.360456,-1.360628 h -5.508378 l 6.43742,-8.96072 c 0.33186,-0.464604 0.431414,-0.862836 0.431414,-1.261068 z M 56.31059,67.88741 c 0,1.891682 -0.829562,3.053278 -2.721,3.053278 -1.891354,0 -2.68773,-1.161596 -2.68773,-3.053278 v -5.874256 h 2.820474 c 2.289584,0 2.588256,1.26115 2.588256,2.655046 z m 3.119154,-3.285582 c 0,-3.219208 -1.692318,-5.31001 -5.641038,-5.31001 h -2.85366 v -4.34755 c 0,-0.862876 -0.696824,-1.559816 -1.526394,-1.559816 -0.862748,0 -1.559572,0.69694 -1.559572,1.559816 V 67.88741 c 0,3.219208 1.725424,5.840984 5.806882,5.840984 4.048278,0 5.806968,-2.654962 5.806968,-5.840984 V 64.6682 64.60183 Z m 31.82204,-5.476024 c -0.86267,0 -1.55958,0.696906 -1.55958,1.559742 v 7.20178 c 0,1.891686 -0.82956,3.053198 -2.720922,3.053198 -1.89143,0 -2.68781,-1.161512 -2.68781,-3.053198 v -7.20178 c 0,-0.862836 -0.69682,-1.559742 -1.52639,-1.559742 -0.86275,0 -1.55957,0.696906 -1.55957,1.559742 v 7.20178 c 0,3.219128 1.7255,5.840982 5.806962,5.840982 4.04827,0 5.806878,-2.65504 5.806878,-5.840982 v -7.20178 c -0.0331,-0.862836 -0.730008,-1.559742 -1.559568,-1.559742 z m 23.658786,5.87434 c 0,-3.21921 -1.49254,-5.84107 -5.54073,-5.84107 -1.82523,0 -3.11931,0.53106 -4.01567,1.427082 -0.89552,-0.862836 -2.18961,-1.427082 -4.01484,-1.427082 -4.048366,0 -5.541566,2.655048 -5.541566,5.84107 v 7.201694 c 0,0.862838 0.69682,1.559828 1.52638,1.559828 0.86251,0 1.55958,-0.69699 1.55958,-1.559828 v -7.201694 c 0,-1.891686 0.59702,-3.05328 2.455606,-3.05328 1.89111,0 2.4556,1.161594 2.4556,3.05328 v 7.201694 c 0,0.862838 0.69707,1.559828 1.52589,1.559828 0.863,0 1.56007,-0.69699 1.56007,-1.559828 v -7.201694 c 0,-1.891686 0.59702,-3.05328 2.4556,-3.05328 1.89111,0 2.4556,1.161594 2.4556,3.05328 v 7.201694 c 0,0.862838 0.69624,1.559828 1.52589,1.559828 0.86299,0 1.56007,-0.69699 1.56007,-1.559828 z M 19.478028,59.15899 c 1.09503,0.796548 2.621418,0.564246 3.417766,-0.530976 l 2.853744,-3.949326 c 0.796382,-1.095188 0.56408,-2.62181 -0.530892,-3.418316 -1.095054,-0.796496 -2.621444,-0.564186 -3.41784,0.531 l -2.886882,3.94932 c -0.763194,1.095196 -0.530917,2.621836 0.564104,3.418298 z m 13.07389,-5.57549 c -1.095054,-0.796496 -2.621444,-0.564186 -3.417824,0.531002 L 17.652949,69.911756 c -0.796382,1.09522 -0.564104,2.621862 0.530917,3.418324 1.095021,0.796544 2.621418,0.564244 3.4178,-0.530976 L 33.08281,57.001818 c 0.829568,-1.09518 0.56408,-2.621812 -0.530892,-3.418318 z M 18.382999,52.3224 c 0.79638,-1.095188 0.564095,-2.62182 -0.530926,-3.418318 -1.095022,-0.7965 -2.621419,-0.564188 -3.417797,0.531002 -0.796381,1.095188 -0.564104,2.62182 0.530923,3.418318 1.095021,0.796506 2.621419,0.564186 3.4178,-0.531002 z m 17.420815,21.704668 c -1.094972,-0.796546 -2.621362,-0.56416 -3.41774,0.53098 -0.796382,1.09522 -0.564164,2.621862 0.530892,3.418322 1.095052,0.796548 2.621442,0.56416 3.417824,-0.530974 0.79638,-1.095224 0.564078,-2.621862 -0.530976,-3.418328 z m -4.47961,-6.272486 c -1.09497,-0.796468 -2.62136,-0.56416 -3.41774,0.53106 l -2.886932,3.949302 c -0.79638,1.095136 -0.564078,2.621776 0.530892,3.418324 1.095054,0.79646 2.621444,0.56416 3.417824,-0.53106 l 2.886932,-3.949304 c 0.79638,-1.095134 0.564078,-2.621774 -0.530976,-3.418322 z"
         fill="#05c0c7"
         id="path456"
         style="stroke-width:0.833822" />
    </clipPath>
  </defs>
  <sodipodi:namedview
     id="namedview69"
     pagecolor="#505050"
     bordercolor="#ffffff"
     borderopacity="1"
     inkscape:pageshadow="0"
     inkscape:pageopacity="0"
     inkscape:pagecheckerboard="1"
     showgrid="false"
     inkscape:zoom="10.71875"
     inkscape:cx="30.833819"
     inkscape:cy="30.880466"
     inkscape:window-width="1680"
     inkscape:window-height="912"
     inkscape:window-x="0"
     inkscape:window-y="25"
     inkscape:window-maximized="0"
     inkscape:current-layer="svg67" />
  <g
     id="g469">
    <path
       fill="#ffffff"
       d="M 109,104 H 19 C 13.5,104 9,99.5 9,94 V 34 C 9,28.5 13.5,24 19,24 h 90 c 5.5,0 10,4.5 10,10 v 60 c 0,5.5 -4.5,10 -10,10 z"
       id="path57" />
    <path
       fill="#444b54"
       d="M 109,107 H 19 C 11.8,107 6,101.2 6,94 V 34 C 6,26.8 11.8,21 19,21 h 90 c 7.2,0 13,5.8 13,13 v 60 c 0,7.2 -5.8,13 -13,13 z M 19,27 c -3.9,0 -7,3.1 -7,7 v 60 c 0,3.9 3.1,7 7,7 h 90 c 3.9,0 7,-3.1 7,-7 V 34 c 0,-3.9 -3.1,-7 -7,-7 z"
       id="path59"
       style="fill:#1565c0;fill-opacity:1" />
    <rect
       style="fill:#1565c0;stroke-width:2"
       id="rect372"
       width="29.48105"
       height="35.265305"
       x="12.314869"
       y="46.274052"
       clip-path="url(#clipPath454)"
       transform="matrix(2.0815854,0,0,2.0815854,5.9678177,-68.056265)" />
  </g>
</svg>
